<svg width="600" height="400" viewBox="0 0 600 400" fill="none" xmlns="http://www.w3.org/2000/svg">
<rect width="600" height="400" fill="#F3F4F6"/>
<rect x="50" y="50" width="500" height="300" rx="12" fill="white" stroke="#E5E7EB" stroke-width="2"/>
<rect x="50" y="50" width="500" height="40" fill="#E5E7EB"/>
<circle cx="70" cy="70" r="6" fill="#FECACA"/>
<circle cx="90" cy="70" r="6" fill="#FDE68A"/>
<circle cx="110" cy="70" r="6" fill="#A7F3D0"/>
<rect x="80" y="120" width="200" height="180" rx="8" fill="#F9FAFB"/>
<path d="M100 250C120 220, 140 240, 160 210C180 180, 200 200, 220 170L260 220" stroke="#3B82F6" stroke-width="4" stroke-linecap="round"/>
<rect x="100" y="140" width="140" height="10" rx="5" fill="#D1D5DB"/>
<rect x="320" y="120" width="180" height="80" rx="8" fill="#F9FAFB"/>
<rect x="340" y="140" width="30" height="40" fill="#A5B4FC"/>
<rect x="380" y="150" width="30" height="30" fill="#A5B4FC"/>
<rect x="420" y="130" width="30" height="50" fill="#A5B4FC"/>
<rect x="320" y="220" width="180" height="80" rx="8" fill="#F9FAFB"/>
<rect x="340" y="240" width="140" height="8" rx="4" fill="#D1D5DB"/>
<rect x="340" y="260" width="100" height="8" rx="4" fill="#D1D5DB"/>
</svg>
